<svg width="312" height="239" viewBox="0 0 312 239" fill="none" xmlns="http://www.w3.org/2000/svg">
<path fill-rule="evenodd" clip-rule="evenodd" d="M96.9659 108.552C98.0978 119.98 99.2297 131.407 100.361 142.835C106.523 139.319 112.686 135.802 118.847 132.286V158.32V165.163C118.847 165.768 118.488 167.848 118.847 168.373C119.152 168.817 121.41 168.83 121.944 168.905C125.428 169.393 128.921 169.827 132.418 170.213C141.635 171.231 151.501 172.689 160.754 171.52C168.796 170.503 176.594 167.642 183.942 164.313C186.522 163.145 189.066 161.894 191.562 160.557C192.091 160.274 194.013 159.605 194.301 159.028C194.536 158.557 193.984 156.901 193.911 156.406C193.6 154.318 193.289 152.23 192.979 150.142L188.642 120.984L196.835 129.165C197.476 129.806 198.695 131.626 199.583 131.91C200.234 132.118 201.847 131.473 202.49 131.349C207.129 130.455 211.768 129.561 216.407 128.668C217.487 128.459 219.923 128.467 220.834 127.814C221.325 127.462 221.348 126.747 221.521 126.069C222.652 121.636 223.784 117.204 224.915 112.772C225.119 111.974 226.256 109.456 225.967 108.652C225.863 108.364 225.361 108.167 225.054 107.979C218.053 103.703 211.052 99.4267 204.051 95.1505C200.215 92.8082 196.38 90.4655 192.544 88.1232C190.938 87.1416 188.965 85.3735 187.144 84.8245C186.014 84.4839 184.37 84.7391 183.201 84.7056C180.824 84.6378 178.448 84.57 176.072 84.5023C175.7 84.4918 174.397 84.2265 174.083 84.4457C173.823 84.6281 173.931 84.8822 173.845 85.3169C173.636 86.3789 173.635 87.5237 173.532 88.6015C173.449 89.4663 173.613 91.0523 173.224 91.8353C172.975 92.3356 173.29 92.1363 172.954 92.3781C172.552 92.6662 171.272 92.5735 170.795 92.6287C168.466 92.8994 166.138 93.1697 163.809 93.4401C161.041 93.7616 158.241 94.365 155.46 94.0871C151.243 93.6661 146.696 93.687 142.556 92.7988C141.48 92.5677 141.092 91.9614 140.262 91.1327C138.642 89.5149 137.038 87.8784 135.4 86.2779C134.598 85.4936 134.942 85.6266 134.114 85.924C133.077 86.2967 132.025 87.1964 131.086 87.7681C127.49 89.9587 123.894 92.1496 120.297 94.3402L98.3401 107.715C97.8819 107.994 97.4241 108.273 96.9659 108.552Z" fill="#FF5678"/>
<path fill-rule="evenodd" clip-rule="evenodd" d="M306.98 109.973C302.454 127.156 293.35 145.893 275.01 151.371C270.552 152.702 266.214 153.707 261.583 153.2C261.142 153.152 260.773 153.214 260.354 153.222C259.603 153.236 260.251 153.506 259.409 153.246C258.752 153.043 258.137 152.536 257.453 152.312C255.633 151.716 253.693 151.601 251.843 151.12C247.299 149.938 242.615 148.478 238.212 146.848C236.138 146.08 234.233 145.011 232.282 143.983C230.3 142.938 228.199 142.289 226.194 141.33C224.609 140.572 221.895 139.585 220.781 138.164C219.593 136.648 221.236 133.421 221.706 131.81C223.304 126.327 225.206 120.925 226.406 115.333C230.552 120.137 236.306 123.113 242.262 125.032C245.494 126.073 248.819 126.826 252.18 127.297C255.232 127.724 258.524 128.242 261.584 127.635C263.893 127.176 266.792 126.115 268.442 124.352C269.03 123.723 269.736 122.569 269.407 121.655C268.988 120.495 267.768 121.041 267.108 120.175C266.533 119.42 266.623 117.656 266.44 116.738C266.116 115.112 265.67 113.531 265.126 111.966C264.071 108.928 262.756 105.883 262.441 102.65C262.167 99.8449 262.806 97.1922 264.205 94.7583C264.867 93.6077 266.527 90.4774 268.148 90.6075C269.928 90.7503 267.528 98.2509 267.449 99.7811C267.138 105.846 267.952 112.309 271.064 117.625C272.256 119.661 273.979 122.031 276.523 122.283C279.219 122.55 281.393 120.43 282.675 118.284C285.805 113.05 284.227 105.867 282.642 100.381C280.698 93.6502 275.622 89.011 272.413 82.966C277.204 83.4476 279.77 86.4913 282.229 90.353C284.936 94.6044 287.044 99.7086 288.083 104.655C288.608 107.155 288.245 109.664 288.249 112.188C288.25 113.027 288.249 116.12 289.617 115.998C291.078 115.868 291.579 112.379 291.794 111.315C292.286 108.874 292.819 106.432 293.247 103.979C294.004 99.6391 294.34 95.1938 295.246 90.8833C295.4 90.1548 295.705 88.1333 296.795 88.679C297.636 89.0993 297.501 92.226 297.532 92.9527C297.608 94.7435 297.714 96.5343 297.728 98.327C297.75 100.984 297.22 103.734 297.48 106.375C297.65 108.101 298.576 110.007 299.724 107.68C300.862 105.372 301.094 102.494 301.729 100.012C302.396 97.4067 303.084 94.7626 304.5 92.4481C304.892 91.8061 305.314 90.7867 306.187 91.0888C306.821 91.3086 307.289 92.8111 307.485 93.3413C308.369 95.7381 308.219 98.4027 308.163 100.912C308.095 103.986 307.765 106.992 306.98 109.973ZM218.719 114.432C218.478 114.354 217.45 114.256 217.195 114.234C216.897 114.208 217.236 113.658 216.513 113.814C216.653 114.16 216.9 114.391 217.257 114.507C216.17 114.874 215.368 113.966 214.625 113.849C213.914 113.738 213.884 113.849 213.182 114.6C212.422 113.673 212.564 114.251 211.939 114.252C211.712 114.252 211.702 114.596 211.332 114.555C211.008 114.518 210.974 114.028 210.783 113.971C209.746 113.657 208.679 115.236 207.502 113.866C207.217 115.292 203.951 113.506 202.695 113.756C201.378 114.018 201.946 114.491 200.881 113.684C199.867 112.915 200.15 113.426 198.97 114.055C198.998 114.04 198.304 114.508 198.368 114.516C197.552 114.42 197.598 113.576 196.564 113.621C195.469 113.668 195.002 114.527 194 113.471C193.782 114.261 193.737 113.921 193.224 114.12C192.941 114.187 192.694 114.113 192.482 113.898C192.418 114.115 192.277 114.248 192.059 114.297C191.499 114.348 190.45 114.425 189.942 114.156C189.18 113.752 189.792 113.597 189.264 113.142C189.027 114.396 188.508 114.129 187.413 114.246C186.578 114.336 186.393 114.079 185.596 113.955C184.81 113.832 183.794 114.137 183.028 114.267C182.711 114.321 182.288 114.542 181.965 114.464C181.675 114.394 181.551 114.169 181.377 114.11C181.167 114.039 181.212 113.855 180.848 113.765C180.597 113.705 180.148 113.94 179.897 113.98C178.11 114.27 176.394 114.273 174.689 113.57C175.529 115.046 172.727 114.249 172.227 113.638C171.603 114.617 170.847 113.926 169.589 114.002C168.377 114.076 166.554 114.447 166.063 112.938C165.967 113.244 165.279 114.135 165.005 114.271C164.211 114.664 164.116 114.082 163.378 113.845C162.372 113.522 162.582 114.135 161.958 114.259C160.906 114.47 160.337 113.729 159.407 113.335C159.368 113.947 159.348 114.324 158.818 114.706C158.349 112.998 156.676 114.845 156.963 112.563C156.326 112.978 155.43 113.296 155.249 114.135C156.314 113.842 155.363 114.538 155.318 114.561C155.177 114.635 154.702 113.967 154.591 113.873C154.561 114.188 154.531 114.503 154.501 114.818C154.077 114.606 153.679 114.226 153.335 114.035C153.024 113.864 153.469 113.507 152.944 113.483C152.668 113.469 152.38 114.068 152.09 114.119C151.647 114.197 151.86 113.561 151.674 113.582C151.392 113.614 150.931 114.028 150.717 114.02C150.016 113.994 150.491 113.668 149.956 113.518C149 113.251 149.062 113.876 148.374 114.101C146.802 114.617 146.96 112.242 145.361 113.826C144.979 114.205 144.732 114.791 144.208 114.758C143.123 114.69 143.504 113.403 143.724 112.773C143.953 112.886 139.759 115.04 139.792 114.955C139.818 114.439 140.478 114.04 139.889 113.582C139.407 114.616 138.9 114.634 137.788 114.826C137.248 114.92 137.141 115.045 136.563 114.821C136.195 114.678 135.947 114.09 135.581 114.058C135.63 114.062 134.958 114.574 134.856 114.62C134.249 114.893 133.865 114.583 133.276 114.696C132.773 114.792 132.575 115.219 132.075 115.102C131.408 114.946 131.8 114.149 130.882 114.371C130.568 114.447 130.379 115.052 129.885 115.177C129.114 115.372 128.169 115.008 127.354 115.198C126.707 115.349 126.228 115.413 125.662 115.444C125.205 115.47 125.393 115.115 124.552 115.534L124.196 114.635C123.775 115.014 123.354 115.392 122.933 115.771C122.853 115.432 122.802 115.088 122.781 114.74C122.153 115.369 121.362 115.476 120.518 115.533C119.604 115.594 118.924 115.793 118.034 115.96C117.753 116.013 117.029 116.097 116.798 115.999C116.832 116.013 116.365 115.819 116.506 115.856C116.445 115.733 116.389 115.607 116.337 115.48C116.259 115.125 116.003 115.11 115.572 115.433C115.349 115.399 114.917 115.106 114.694 115.178C114.121 115.364 114.199 115.809 113.627 115.744C113.256 115.701 113.067 115.153 112.681 115.116C112.09 115.06 111.578 115.721 111.045 115.865C112.664 115.425 108.946 115.766 110.102 115.797C109.344 115.777 108.557 115.739 107.857 116.079C107.47 115.814 107.94 115.282 107.549 115.063C107.194 114.865 107.166 115.389 107.125 115.401C107.349 115.337 107.237 115.784 107.013 115.863C106.316 116.11 105.757 115.482 105.721 114.858C105.129 115.75 104.962 115.392 104.091 115.447C103.231 115.501 102.489 115.952 101.629 115.943C99.9283 115.927 98.7741 115.336 98.2063 113.817C100.019 114.038 101.843 112.873 103.616 113.147C104.198 113.237 104.562 113.675 105.072 113.597C105.701 113.502 106.14 112.816 106.946 112.742C108.724 112.579 110.477 112.737 112.268 112.465C114.406 112.139 116.638 111.946 118.797 112.105C120.466 112.228 121.817 111.59 123.509 111.467C125.697 111.307 127.902 111.279 130.094 111.164C132.346 111.046 134.769 110.687 137.014 110.802C137.715 110.838 138.318 110.907 139.014 110.865C139.308 110.847 139.587 110.647 139.896 110.677C140.298 110.716 140.47 111.128 140.888 111.113C141.596 111.089 142.354 110.505 143.196 110.489C144.582 110.463 145.961 110.466 147.35 110.387C148.572 110.318 149.882 110.032 151.1 110.048C151.958 110.058 152.17 110.79 152.671 110.865C153.57 111.001 158.122 108.411 158.515 110.736C160.884 109.114 164.062 110.487 166.699 110.182C170.087 109.791 173.538 110.14 176.949 110C180.42 109.859 183.991 109.99 187.448 110.317C188.88 110.453 190.263 110.58 191.699 110.498C192.34 110.461 193.08 110.298 193.72 110.445C193.875 110.481 195.062 111.31 194.915 111.334C195.563 110.752 195.125 110.666 196.266 110.636C197.145 110.613 197.977 110.803 198.851 110.855C200.421 110.948 202.002 110.73 203.569 110.778C204.876 110.818 206.155 111.011 207.47 111.02C208.887 111.031 210.56 111.071 211.585 112.213C211.477 111.855 211.369 111.496 211.261 111.137C212.842 111.261 214.405 111.825 216.004 111.562C215.6 111.949 215.189 112.266 215.035 112.834C215.897 112.724 216.481 112.122 217.389 112.118C218.151 112.113 218.31 112.496 219.115 112.001C219.214 112.607 219.313 113.212 219.412 113.818C220.527 113.555 219.795 112.724 219.877 111.975C220.783 112.247 221.551 111.934 221.193 113.238C220.918 114.243 219.663 114.738 218.719 114.432ZM217.153 125.627C216.764 126.719 213.401 126.095 212.606 125.979C211.579 125.831 210.403 125.595 209.457 125.477C209.344 125.326 209.207 125.198 209.049 125.092C208.93 125.258 208.78 125.376 208.598 125.445C208.163 125.54 208.161 125.988 207.591 125.889C207.564 126.553 208.025 126.176 208.378 126.416C207.488 127.013 207.895 126.326 207.396 126.337C207.272 126.162 207.1 126.093 206.879 126.131C206.598 126.203 206.338 126.324 206.101 126.492C205.879 126.727 205.688 126.739 205.53 126.529C205.377 126.376 205.192 126.281 204.973 126.246C204.096 126.388 203.851 126.777 202.864 126.713C201.453 126.623 199.928 126.994 198.539 126.799C197.679 126.677 196.241 125.325 195.85 126.643C195.255 125.666 194.307 125.002 193.738 124.003C196.391 123.85 199.044 123.667 201.699 123.571C204.024 123.488 206.568 123.749 208.74 123.64C210.776 123.537 212.931 123.312 215.009 123.126C217.212 122.93 217.941 123.413 217.153 125.627ZM147.934 125.788C148.897 126.055 149.815 125.45 150.749 125.641C151.058 125.704 151.697 126.266 151.838 126.278C152.095 126.298 152.851 125.746 153.176 125.672C155.228 125.205 157.714 125.255 159.766 125.542C160.853 125.693 161.02 125.196 161.969 124.954C162.955 124.703 164.358 124.896 165.396 124.827C167.84 124.663 170.282 124.78 172.709 124.601C175.201 124.418 177.68 124.318 180.173 124.19C181.871 124.103 185.951 123.134 187.359 124.395C188.519 125.434 187.024 127.239 185.864 127.651C184.995 127.958 184.58 127.31 183.935 127.372C183.201 127.442 183.457 128.309 182.802 127.505C182.396 128.305 179.845 127.964 179.114 128.017C177.52 128.132 176.173 128.452 175.088 126.965C175.162 127.394 175.235 127.823 175.309 128.251C173.871 127.483 172.327 127.729 171.079 127.997C170.461 128.129 168.563 129.046 167.893 128.651C167.433 128.379 168.245 127.914 167.467 127.682C167.06 127.56 166.357 128.236 165.859 128.203C164.481 128.108 164.872 127.181 163.519 128.36C163.06 127.964 162.908 127.29 162.968 126.712C161.985 127.55 162.068 128.948 160.31 128.692C159.655 128.597 159.535 127.929 159.193 127.806C158.466 127.543 158.383 128.015 157.753 128.389C157.515 128.53 157.225 128.757 156.945 128.785C156.37 128.842 156.278 128.578 156.2 128.587C155.817 128.629 155.334 128.824 154.88 128.684C154.473 128.56 154.353 127.84 153.635 128.009C152.948 128.17 152.942 128.637 153.067 129.335C152.389 129.265 151.979 128.888 151.472 128.479C150.96 129.673 149.882 128.684 149.286 129.691C148.509 128.764 148.011 129.019 147.048 128.114C147.095 128.492 147.142 128.869 147.189 129.248C146.438 129.103 146.103 128.572 145.462 129.274C144.839 128.114 142.952 129.767 141.982 128.647C141.55 130.065 138.691 129.726 137.483 129.75C136.413 129.772 135.62 129.685 134.575 129.933C133.651 130.153 132.37 130.38 131.501 130.28C130.933 130.214 130.312 130.11 129.605 130.187C128.585 130.298 127.704 130.826 126.648 130.576C125.057 130.2 124.082 128.11 125.854 127.193C127.066 126.565 129.251 126.797 130.585 126.681C132.796 126.489 135.275 126.086 137.489 126.269C139.217 126.412 140.791 126 142.554 125.826C143.881 125.695 146.055 125.459 146.921 126.774C147.253 126.39 147.218 125.59 147.934 125.788ZM123.724 143.788C123.486 142.605 133.597 141.954 134.601 141.877C136.708 141.714 138.82 141.599 140.932 141.545C142.668 141.501 144.289 141.832 146.025 141.566C147.647 141.317 149.604 140.807 151.016 141.955C151.223 140.385 157.309 141.15 158.467 141.154C163.508 141.172 168.331 141.184 173.206 140.872C175.992 140.693 178.951 140.453 181.738 140.593C182.995 140.656 184.007 140.991 185.257 140.7C186.072 140.511 186.951 140.116 187.731 140.674C188.643 141.327 189.033 143.544 188.404 144.469C187.947 145.143 187.541 145.068 186.81 144.952C185.685 144.773 184.85 144.513 183.703 144.97C183.889 144.895 182.935 145.108 183.014 145.102C181.715 145.199 179.934 146.107 178.815 145.061C179.263 145.139 179.915 144.339 179.35 144.273C178.925 144.224 178.656 144.679 178.324 144.831C177.191 145.353 176.611 145.19 175.934 144.096C174.57 145.277 174.423 144.95 173.824 143.496C173.362 143.851 173.263 144.691 172.9 144.967C172.846 145.008 173.069 145.518 172.807 145.497C172.564 145.478 172.484 145.079 172.297 145.048C172.178 145.027 172.116 144.678 172.001 144.656C171.877 144.633 171.75 144.857 171.61 144.85C171.235 144.832 170.162 145.63 170.547 144.51C169.978 145.233 169.734 144.773 169.529 144.115C168.873 144.614 168.217 145.112 167.561 145.611C167.256 144.762 166.731 144.994 166.07 145.29C166.269 144.701 166.144 144.144 165.645 144.553C165.356 144.79 165.162 145.543 164.866 145.863C163.668 144.65 163.233 144.982 161.578 145.14C160.946 145.2 160.161 145.317 159.597 144.935C159.101 144.6 158.82 143.369 157.972 144.363C158.161 144.142 157.865 145.841 157.812 146.111C157.438 145.859 157.12 145.548 156.858 145.181C156.37 146.147 155.089 145.28 154.039 145.477C152.385 145.788 150.68 146.312 149.219 145.081C149.116 145.479 147.92 145.985 147.918 146C147.989 145.297 148.433 145.544 147.526 145.411C147.359 145.386 147.17 145.686 147.013 145.719C146.472 145.831 145.841 145.725 145.296 145.709C143.031 145.644 140.957 146.146 138.72 146.328C137.966 146.389 137.071 146.509 136.363 146.225C135.634 145.932 135.654 145.599 134.916 145.788C135.15 145.729 134.455 146.458 134.492 146.431C134.393 146.503 133.98 146.147 133.832 146.173C133.79 146.329 133.747 146.484 133.704 146.64C133.526 146.618 133.348 146.596 133.17 146.575C132.684 146.64 132.245 146.147 131.788 146.131C131.872 146.134 130.554 146.624 130.615 146.654C129.695 146.195 129.959 146.328 128.792 146.608C127.689 146.872 126.591 146.81 125.46 146.975C122.168 147.453 124.129 145.803 123.724 143.788ZM120.817 160.244C120.198 159.366 121.845 159.063 122.371 158.985C123.236 158.857 124.384 159.111 124.96 158.974C125.838 158.765 126.685 158.267 127.673 158.131C128.92 157.961 130.177 157.933 131.43 157.827C131.847 157.79 132.363 157.647 132.769 157.671C133.374 157.708 133.624 158.027 134.113 158.029C134.944 158.034 135.969 157.509 136.821 157.413C137.912 157.289 139.014 157.231 140.11 157.177C142.42 157.062 144.705 157.11 147.014 157.107C148.067 157.106 150.87 156.013 151.395 157.238C152.125 156.31 153.997 156.436 155.041 156.409C156.879 156.362 158.699 156.185 160.536 156.099C162.108 156.026 163.866 156.363 165.41 156.127C166.261 155.997 166.544 155.724 167.508 155.848C168.226 155.938 169.319 155.56 169.935 155.727C169.903 155.719 170.703 156.214 170.453 156.23C170.728 156.212 170.712 156.404 171.015 156.319C171.413 156.207 171.23 155.706 172.055 155.528C173.342 155.251 175.058 155.572 176.395 155.5C177.692 155.432 178.988 155.402 180.286 155.408C180.884 155.41 181.623 155.268 182.204 155.384C182.489 155.441 183.095 155.813 183.336 155.776C184.02 155.669 184.369 155.194 185.294 155.223C186.343 155.256 187.286 155.242 188.329 155.162C189.338 155.085 189.501 154.941 190.001 155.781C190.497 156.614 190.634 157.699 189.721 158.265C190.314 158.226 191.043 159.02 190.344 159.46C189.913 159.732 189.047 159.118 188.53 159.162C187.893 159.217 187.393 159.554 186.7 159.575C185.971 159.597 185.231 159.781 184.513 159.795C183.764 159.809 183.198 159.475 182.488 159.617C181.863 159.743 181.797 160.255 181.045 159.805C180.671 159.581 180.608 158.753 180.098 158.745C179.415 158.735 179.687 159.618 179.294 160.027C179.189 158.764 178.214 160.853 177.827 159.321C177.469 159.83 176.147 160.542 175.506 160.133C174.922 159.76 175.116 158.917 174.872 158.309C174.467 159.401 173.381 160.534 173.479 158.546C172.951 159.196 171.525 159.093 171.882 160.23C171.452 160.222 171.351 159.608 170.989 159.561C170.676 159.521 170.428 159.762 170.38 159.758C170.552 159.772 169.869 159.999 169.858 160.002C170.32 159.908 168.525 159.748 168.83 159.75C168.414 159.747 167.904 160.088 167.416 160.087C166.972 160.086 166.531 159.911 166.093 159.861C164.957 159.732 165.193 159.981 164.48 160.338C164.216 160.47 164.149 160.694 163.774 160.666C163.497 160.645 163.394 160.284 163.362 160.281C162.973 160.242 163.261 160.111 162.656 160.171C162.587 160.291 162.518 160.41 162.448 160.529C162.23 160.808 161.947 160.878 161.599 160.739C160.705 160.931 157.738 161.762 158.029 160.222C157.574 160.444 157.119 160.667 156.665 160.889C156.47 159.647 154 161.294 153.448 161.377C152.74 161.483 152.675 161.211 152.006 161.067C151.885 161.041 151.644 161.439 151.361 161.381C150.627 161.234 150.496 161.161 150.37 160.363C149.847 161.342 149.412 160.905 148.462 161.065C148.252 161.101 148.118 161.514 147.816 161.443C147.599 161.392 147.593 160.995 147.443 160.943C147.308 160.897 147.328 160.583 147.13 160.539C146.902 160.488 146.125 161.124 145.902 161.223C145.4 161.444 144.574 161.811 144.084 161.701C143.477 161.566 143.747 161.116 142.89 161.167C141.538 161.246 140.974 162.397 140.132 160.583C139.753 161.309 139.801 161.507 139.191 161.746C138.741 161.923 137.599 161.738 137.006 161.716C134.472 161.623 131.981 162.486 129.468 162.26C128.364 162.161 127.432 161.94 126.318 162.12C125.147 162.311 124.001 162.59 122.813 162.703C122.209 162.76 120.946 162.933 120.65 162.161C120.389 161.481 121.362 161.017 120.817 160.244ZM125.786 188.122C122.5 190.321 119.778 193.323 116.76 195.865C113.735 198.414 111.334 201.247 108.613 204.07C106.097 206.679 103.786 209.148 100.744 211.12C98.8199 212.367 97.1029 213.903 95.1261 215.08C93.6453 215.961 91.4022 217.12 92.1245 214.425C92.8649 211.663 94.2318 208.871 95.4188 206.291C97.1066 202.624 98.8069 198.991 100.633 195.394C101.319 194.042 101.703 192.697 102.791 191.62C103.975 190.449 104.804 188.919 106.101 187.811C111.556 183.155 119.776 186.752 125.786 188.122ZM136.096 189.701C134.605 190.482 132.937 190.676 131.357 191.193C130.01 191.633 128.759 192.416 127.311 192.474C128.629 191.484 129.761 190.139 131.247 189.388C132.919 188.543 134.436 189.158 136.096 189.701ZM201.533 196.213C196.049 194.363 190.943 191.637 185.602 189.442C184.68 189.063 177.469 186.688 177.616 185.558C182.669 184.633 187.873 183.044 192.938 184.776C197.546 186.352 201.294 190.131 204.861 193.294C205.792 194.12 211.548 197.878 211.032 199.076C210.676 199.905 207.903 199.679 207.248 199.509C206.401 199.289 205.914 198.775 205.251 198.211C204.141 197.268 202.914 196.679 201.533 196.213ZM191.409 165.3C192.242 164.534 192.741 163.371 193.536 162.663C194.559 161.754 196.208 162.197 197.326 162.669C200.679 164.086 203.545 166.468 206.877 167.947C210.571 169.585 213.768 171.775 217.099 174.031C220.144 176.094 223.436 177.801 226.544 179.77C229.711 181.776 233.256 183.08 236.466 185.015C239.734 186.984 242.988 188.962 246.128 191.132C251.727 195.002 257.556 198.976 261.698 204.478C263.827 207.306 265.82 210.514 267.382 213.689C268.803 216.576 270.343 220.584 268.503 223.587C266.735 226.471 263.723 228.742 261.173 230.894C260.208 231.709 259.289 232.699 258.038 233.053C256.515 233.482 254.739 233.363 253.173 233.49C244.802 234.169 237.003 233.528 228.754 232.031C220.8 230.588 212.812 229.779 204.797 228.776C200.275 228.21 195.754 227.551 191.294 226.608C189.387 226.205 187.447 225.74 185.581 225.191C183.952 224.712 182.581 223.657 180.906 223.238C173.796 221.463 165.661 220.784 158.622 217.798C164.851 215.209 171.47 213.645 177.855 211.494C184.574 209.23 191.137 207.33 198.219 206.687C201.864 206.356 205.125 205.425 208.631 204.451C211.972 203.523 215.46 203.238 218.891 202.822C220.417 202.637 224.772 202.914 225.278 200.919C226.031 197.949 221.752 197.607 219.928 197.873C217.34 198.25 215.206 198.896 213.226 196.773C211.204 194.605 209.239 192.385 207.18 190.245C203.362 186.276 199.428 181.686 194.031 179.905C187.448 177.733 179.814 179.795 173.245 181.03C166.307 182.335 159.381 183.584 152.572 185.481C149.753 186.266 146.117 187.996 143.191 187.718C140.308 187.444 137.041 186.972 134.255 186.14C132.994 185.764 131.957 185.067 130.829 184.417C129.362 183.571 127.754 183.029 126.197 182.372C123.049 181.043 119.98 179.819 116.583 179.297C113.722 178.857 110.685 178.596 107.913 179.599C105.193 180.583 102.783 182.586 100.886 184.725C98.8245 187.05 97.121 189.655 95.4318 192.253C94.6208 193.499 93.6309 194.588 92.7907 195.806C92.0856 196.83 91.6739 197.967 90.9278 198.962C89.2577 201.187 88.1237 204.034 87.1119 206.623C85.9872 209.499 84.7382 212.919 85.0067 216.047C85.108 217.229 85.214 218.795 85.6714 219.892C86.2532 221.286 87.0827 221.251 88.2783 221.776C90.3326 222.68 90.9087 225.178 93.5635 224.691C96.0536 224.234 98.2132 222.182 100.03 220.547C102.398 218.415 104.664 216.168 106.93 213.929C109.255 211.631 111.546 209.082 113.396 206.379C114.124 205.315 114.692 204.112 115.552 203.143C116.648 201.909 117.878 201.761 119.367 201.269C132.379 196.97 145.454 192.823 158.873 189.984C162.087 189.304 165.328 188.426 168.486 187.521C171.836 186.561 173.57 187.576 176.335 189.403C182.11 193.222 188.936 195.911 195.367 198.403C197.392 199.187 200.616 199.237 202.198 200.784C192.816 202.214 183.874 204.966 174.825 207.707C170.363 209.057 165.85 210.229 161.371 211.521C156.89 212.813 152.58 214.488 148.161 215.945C143.764 217.395 139.116 217.987 134.676 219.325C130.143 220.69 125.629 221.629 120.976 222.459C116.278 223.298 111.613 224.265 106.899 225.015C104.74 225.359 102.582 225.715 100.448 226.188C98.3592 226.651 96.3413 227.758 94.2423 228.015C84.8683 229.162 75.6782 231.717 66.3406 233.162C59.3688 234.241 47.2394 235.745 42.7184 228.75C38.1722 221.716 43.7497 213.51 48.7263 208.481C51.8192 205.355 55.2944 202.603 58.9406 200.156C62.843 197.537 66.5976 194.709 70.5008 192.093C79.3337 186.174 88.9117 181.347 98.4014 176.591C102.956 174.308 107.357 171.86 111.788 169.354C113.987 168.111 115.204 170.117 116.943 171.481C118.31 172.554 120.821 175.198 122.734 173.975C122.807 174.416 122.881 174.856 122.955 175.297C123.515 175.041 124.076 174.786 124.636 174.53C125.012 175.517 124.968 176.13 126.02 176.649C126.665 176.967 128.043 177.351 128.659 176.79C128.784 177.18 128.91 177.569 129.036 177.959C129.574 177.918 129.678 176.378 129.779 176.018C130.701 177.365 131.977 178.49 133.598 178.871C133.606 178.783 133.335 177.676 133.346 177.67C133.859 177.356 134.506 178.7 134.778 178.988C135.68 179.942 136.217 179.794 137.213 179.024C137.286 179.103 137.623 179.982 137.672 179.966C137.887 179.898 138.297 179.119 138.342 179.048C138.279 180.073 140.259 180.279 140.957 180.059C140.801 179.759 140.644 179.459 140.487 179.158C142.922 178.833 143.878 181.42 146.215 181.289C147.943 181.191 146.557 180.814 147.535 180.074C148.389 179.427 148.541 180.841 148.625 180.796C148.788 180.626 148.914 180.43 149.004 180.208C149.32 181.419 151.837 182.506 151.577 180.514C152.567 180.91 153.27 181.568 154.365 181.706C155.697 181.875 157.12 181.593 158.448 181.482C161.311 181.244 164.01 180.66 166.591 179.348C168.121 178.571 169.749 177.865 171.188 176.927C172.391 176.142 174.675 173.758 176.278 174.784C175.867 173.574 177.799 174.696 177.861 173.136C178.171 173.37 178.481 173.604 178.792 173.838C178.978 173.43 178.926 172.787 179.175 172.431C179.517 171.943 179.685 172.23 179.976 171.956C180.303 171.648 180.588 170.825 180.98 170.591C181.383 170.35 181.858 170.637 182.292 170.426C182.953 170.105 185.796 166.97 185.315 169.656C186.537 169.241 185.595 168.861 185.747 168.047C186.054 166.414 186.8 167.589 187.544 167.731C188.762 167.965 188.737 166.958 189.416 166.227C190.036 165.558 191.202 165.259 190.8 164.099C191.259 164.346 191.356 164.83 191.409 165.3ZM118.012 130.432C117.053 131.501 116.334 131.044 115.268 130.887C115.154 130.505 114.959 130.452 114.683 130.728C114.367 130.91 114.028 131.03 113.664 131.087C112.789 131.302 111.881 131.211 111.025 131.537C111.05 131.251 111.351 130.741 111.158 130.45C110.258 131.073 109.701 131.468 108.596 131.48C107.701 131.49 106.129 130.806 105.386 131.623C105.363 131.305 105.34 130.987 105.318 130.669C104.954 130.85 104.637 131.093 104.367 131.397C104.316 130.926 104.288 130.569 103.976 130.188C103.385 131.404 102.737 131.433 101.588 130.968C101.749 131.033 100.438 130.265 100.488 130.478C100.074 128.731 106.617 128.876 107.304 128.807C109.019 128.633 110.734 128.533 112.452 128.374C114.082 128.225 115.298 127.971 116.425 129.33C115.923 127.367 120.677 127.464 118.012 130.432ZM42.9935 99.9819C43.1737 102.95 43.8344 106.105 42.6802 108.963C41.7524 111.259 39.9014 113.853 37.9073 115.352C33.8242 118.42 30.3637 114.665 29.7953 110.539C29.203 106.234 30.3771 100.975 34.0834 98.3212C36.2981 96.7355 38.4425 96.8454 40.9921 97.3667C41.5909 97.4892 42.5631 97.442 42.9055 98.0371C42.9859 98.1763 42.9138 99.979 42.9935 99.9819ZM97.2212 139.532C96.5157 139.889 95.7779 140.097 95.1561 140.581C94.9401 140.749 94.8666 141.133 94.6374 141.274C94.2203 141.532 93.6241 141.361 93.1893 141.574C92.4699 141.926 91.954 142.429 91.099 142.753C89.8291 143.234 88.7156 143.894 87.5152 144.52C85.5154 145.563 83.3688 146.458 81.278 147.307C80.2226 147.735 77.3039 148.57 77.4048 150.115C77.1687 150.179 76.9276 149.663 76.4344 149.704C75.7578 149.76 74.8639 150.543 74.1613 150.735C72.8471 151.095 71.8298 151.127 71.8298 152.802C71.4117 152.518 71.3053 151.823 70.7488 151.731C70.1223 151.627 69.8588 152.303 69.3577 152.513C68.7676 152.761 68.0337 152.523 67.4494 152.786C67.1938 153.057 66.9098 153.293 66.5973 153.494C66.2793 153.53 65.9628 153.521 65.6481 153.464C64.4074 153.728 63.2658 154.194 62.0222 154.437C60.8103 154.674 59.9802 154.759 60.4899 156.193C59.1933 156.446 58.8768 155.07 57.414 155.574C55.621 156.19 53.9452 156.635 52.0737 157.011C51.1191 157.203 50.1217 157.63 49.1603 157.731C48.4744 157.803 47.8342 157.557 47.1587 157.634C46.3447 157.725 45.6905 158.102 44.8481 158.116C44.0489 158.13 43.2101 157.987 42.4254 157.846C42.5364 158.162 42.6752 158.465 42.8417 158.755C42.2992 158.642 42.0487 157.989 41.5887 157.892C41.106 157.792 40.6735 158.289 40.2716 158.179C40.1003 158.132 40.2143 157.604 39.9082 157.503C39.6289 157.412 39.5113 157.52 39.2345 157.477C39.1422 157.462 37.9848 157.399 37.8002 157.497C37.4779 157.668 37.8042 157.988 37.74 158.036C36.6514 158.841 36.6381 158.407 36.1529 157.565C35.4402 156.329 34.5809 157.109 33.2857 156.893C31.842 156.652 30.7047 157.289 29.2841 157.198C27.7518 157.101 25.9509 155.954 24.5959 155.284C21.6703 153.838 18.8172 152.47 16.3603 150.28C11.557 145.998 7.64957 140.733 5.34568 134.706C2.87023 128.231 2.40116 121.477 2.59985 114.607C2.71938 110.476 3.05007 106.347 3.70129 102.264C4.14961 99.4549 4.24351 94.4635 7.41022 93.1845C7.95453 99.7609 6.23672 106.462 7.3201 112.996C7.64633 114.964 8.44188 117.586 9.94756 119.044C12.1767 121.202 12.6983 118.083 12.8998 116.36C13.275 113.16 13.9722 109.978 14.466 106.794C14.9591 103.611 15.3077 100.392 15.9933 97.242C16.2435 96.0935 18.2599 87.6834 19.74 88.0817C19.4405 94.2 18.6453 100.213 18.6139 106.353C18.6017 108.817 18.3811 111.418 18.7365 113.865C18.9196 115.124 20.0663 118.819 22.0384 118.511C23.8634 118.226 21.8571 115.623 21.6866 114.619C21.2353 111.963 21.8106 108.658 22.2312 106.021C23.0279 101.03 24.8046 95.9198 27.7085 91.7495C30.3097 88.0154 34.3145 84.4605 39.1393 85.119C41.2005 85.4006 42.8089 85.9124 43.8445 87.7948C44.6574 89.272 47.8587 90.9507 46.0034 92.8003C44.3146 94.484 41.5829 93.1362 39.7056 92.7346C37.4069 92.2433 34.9435 92.8345 33.0211 94.1816C29.7228 96.4918 27.8433 100.623 27.2298 104.497C26.4029 109.721 28.6133 123.394 36.7545 120.33C42.1629 118.294 46.2366 110.97 45.7824 105.364C45.6004 103.119 44.723 98.8586 47.8281 98.2527C51.8062 97.4766 52.3682 101.862 51.9651 104.712C51.3797 108.857 49.1888 112.711 46.6825 115.988C44.4981 118.845 41.9575 120.631 39.3289 122.99C38.5507 123.688 36.5656 125.259 36.899 126.558C37.2645 127.981 40.384 128.386 41.633 128.62C47.8126 129.777 54.7811 128.713 60.9502 127.905C73.6293 126.244 86.1415 122.155 96.5381 114.637C96.958 119.289 97.4876 123.925 97.6826 128.594C97.777 130.86 97.8012 133.159 98.0604 135.413C98.22 136.8 98.7964 138.736 97.2212 139.532ZM62.0644 155.742C61.5666 156.002 62.1048 154.427 61.9663 154.948C62.71 155.215 62.7428 155.48 62.0644 155.742ZM114.661 99.4448C115.451 98.5739 117.61 96.5023 118.295 98.4683C118.55 97.6302 118.583 96.3887 119.567 97.5206C119.959 96.1303 124.281 96.2604 125.352 96.1991C128.78 96.003 132.222 95.8981 135.637 95.5575C142.657 94.8578 149.798 95.219 156.843 95.1959C158.369 95.1909 159.89 95.1083 161.405 95.3297C162.866 95.5431 164.402 96.1422 165.891 95.9234C167.216 95.7287 168.084 95.3635 169.447 95.5196C171.078 95.7067 172.662 95.8397 174.307 95.8336C181.586 95.8069 188.861 96.1018 196.141 96.1133C197.56 96.1155 199.26 95.8383 200.591 96.441C201.084 96.6645 201.623 97.4078 201.999 97.4892C202.431 97.5826 202.175 96.9092 202.753 97.2135C203.526 97.6204 202.927 98.8723 202.416 99.0706C202.722 98.952 201.863 98.8349 201.949 98.8302C201.542 98.8522 201.194 99.1647 200.756 99.1452C200.089 99.116 199.531 98.7094 198.994 98.3515C198.985 98.4978 199.28 99.4722 198.943 99.5212C198.653 99.5637 198.381 98.6031 198.352 98.3796C196.724 99.816 194.998 99.0154 192.977 99.1971C191.544 99.3265 188.555 100.283 187.555 98.7862C187.513 99.1045 187.385 99.3831 187.172 99.6221C186.886 100.057 186.639 100.02 186.431 99.51C186.36 99.5133 185.663 99.6646 185.65 99.6636C185.16 99.6246 184.524 99.4487 184.026 99.4062C183.254 99.3402 183.396 99.9018 182.782 99.9109C182.446 99.9155 181.591 99.4311 181.005 99.4008C179.991 99.3478 178.956 99.7778 177.956 99.6477C177.268 99.5583 176.646 98.9978 175.97 98.9762C175.128 98.948 174.856 99.59 174.189 98.6885C174.052 98.6514 173.967 99.1816 173.913 99.191C173.926 99.1885 173.278 99.2844 173.202 99.3143C173.069 99.3651 172.551 99.6023 172.394 99.6048C172.053 99.6113 171.868 99.3676 171.508 99.3619C170.911 99.3518 169.005 99.8773 169.058 98.7729C166.928 99.5623 165.11 99.2548 162.923 99.4412C161.92 99.5273 161.29 99.3929 160.336 99.2087C159.14 98.978 158.346 99.2678 157.154 99.3265C156.009 99.3828 155.648 98.8979 154.68 98.4603C154.299 98.2877 154.047 98.0602 153.579 98.1561C153.313 98.2109 153.502 98.66 153.424 98.6907C153.013 98.8493 152.726 98.6813 152.162 98.7199C151.122 98.7905 150.708 99.66 149.639 98.8439C149.994 98.801 150.349 98.757 150.705 98.7141C149.682 98.2805 148.333 98.0595 148.58 99.638C147.708 99.5154 148.463 98.9217 148.035 98.709C147.606 98.4971 147.126 98.8522 146.586 99.0277C145.16 99.4902 143.971 99.2606 142.484 99.1777C140.795 99.0832 136.843 100.462 135.633 98.6723C135.597 99.0493 135.192 100.1 134.653 100.05C134.478 100.034 134.967 98.9188 135.023 98.801C134.745 99.3918 133.479 99.5039 132.855 99.8103C132.925 99.4927 132.995 99.1755 133.065 98.8583C132.485 99.475 132.204 99.0987 131.522 99.3049C131.224 99.395 130.793 100.01 130.538 100.047C130.241 99.7025 129.868 99.5543 129.419 99.6023C129.119 99.5277 128.821 99.5129 128.522 99.5587C127.325 99.6455 126.235 100.31 125.044 99.8575C124.014 99.465 123.616 98.4556 123.001 100.062C122.84 99.776 122.678 99.4905 122.517 99.2051C122.317 99.5151 122.118 99.8247 121.918 100.134C121.139 99.6239 121.091 99.3283 120.194 99.5158C119.984 99.5998 119.768 99.5879 119.547 99.4805C119.494 99.638 119.441 99.7948 119.388 99.9519C119.367 100.347 119.25 100.478 119.036 100.343C118.857 100.279 118.695 100.181 118.55 100.05C117.957 100.095 117.199 100.251 116.562 100.165C116.316 100.132 114.775 99.3186 114.661 99.4448ZM132.82 88.8171C132.89 88.9245 132.96 89.0316 133.03 89.139C132.067 89.6476 131.84 89.3556 131.74 88.3341C132.211 88.3431 132.291 89.1711 132.82 88.8171ZM133.417 88.2176C133.881 88.4224 134.413 88.8243 134.85 88.2858C135.144 89.1408 132.959 90.3076 133.417 88.2176ZM136.413 88.5954C137.387 89.2536 135.051 88.7244 135.055 88.7255C135.475 88.3377 135.928 88.2944 136.413 88.5954ZM144.791 84.9244C145.125 86.6099 146.046 86.562 147.533 85.7784C149.702 84.6357 150.068 82.7645 150.219 80.5299C150.364 78.3873 150.626 77.5579 152.836 78.0052C154.378 78.3174 155.682 78.055 157.237 78.0121C158.896 77.9663 159.48 78.2197 159.614 79.9269C159.748 81.6362 160.052 82.9343 161.292 84.2352C162.553 85.5577 164.235 86.3475 165.874 87.0876C166.717 87.4675 167.508 87.8766 168.441 87.9592C168.802 87.9913 170.682 87.7533 170.722 88.3485C170.751 88.7958 168.147 90.0575 167.871 90.2078C166.663 90.8645 165.458 91.4539 164.139 91.8519C161.104 92.7675 157.886 92.8215 154.742 92.766C149.673 92.677 142.668 90.5329 139.637 86.0361C141.355 85.6655 143.073 85.295 144.791 84.9244ZM144.336 70.329C143.534 69.6561 143.015 68.6392 142.349 67.8422C142.013 67.4403 141.766 67.3123 141.447 67.1111C141.11 66.8992 140.92 67.1991 140.639 66.7009C139.914 65.4141 142.153 63.6031 139.778 63.1078C138.974 62.9398 137.04 63.5768 136.805 62.4251C136.473 60.7968 139.581 60.6905 140.312 59.8639C141.766 58.2209 140.779 55.4356 141.665 53.5403C142.503 51.7448 144.667 51.4257 146.375 50.8861C148.755 50.1349 151.163 49.6991 153.579 49.0978C155.269 48.6775 158.076 46.9891 159.643 48.4811C157.225 49.0178 158.63 49.8606 160.242 50.336C162.067 50.8753 164.002 51.0855 165.893 51.2358C167.84 51.3901 169.824 51.4196 171.748 51.0314C173.528 50.6724 175.514 49.126 177.38 49.5221C176.345 51.3219 173.262 52.3049 171.388 52.7764C170.433 53.0165 169.822 52.9415 169.95 54.1318C170.074 55.2853 171.077 56.442 171.304 57.6438C171.603 59.2342 171.342 60.6959 170.775 62.1915C170.218 63.6633 170.089 63.8554 170.575 65.2616C171.334 67.4511 169.704 69.8712 168.197 71.4613C162.105 77.8906 150.445 75.4553 144.336 70.329ZM159.817 31.9039C159.842 31.9695 159.821 31.9446 159.817 31.9039V31.9039ZM161.715 48.1293C161.462 48.3178 160.007 48.7136 160.068 48.1451C160.149 47.3831 161.461 47.6585 161.715 48.1293ZM165.031 32.7394C164.689 32.485 163.733 32.5895 164.432 31.6249C164.66 32.0491 164.845 32.3941 165.031 32.7394ZM142.084 26.6418C142.519 25.5113 143.001 24.4595 143.197 23.2559C143.319 22.5144 143.078 21.6677 144.114 21.5512C142.793 20.9752 142.78 18.7014 142.702 17.5226C142.595 15.8994 142.082 13.726 142.796 12.2152C143.528 10.6632 144.516 10.6888 144.814 12.5372C144.931 13.2609 144.484 13.495 144.4 13.999C144.234 14.996 144.564 14.7774 145.207 14.0179C145.473 14.7899 145.575 15.95 146.655 15.9009C146.583 15.6922 146.169 15.2316 146.308 14.9722C146.52 14.5739 147.558 15.1825 147.69 15.2746C148.638 15.9376 148.843 16.5427 148.167 17.3788C149.103 17.4797 148.318 18.2991 148.922 18.5125C149.843 18.8384 149.225 17.2948 149.125 17.0234C149.686 17.2422 149.874 17.4924 150.23 17.9354C150.438 18.2411 150.628 18.5586 150.799 18.887C150.99 19.4868 151.383 19.6368 151.979 19.338C153.173 19.7125 154.821 19.6537 155.891 20.3087C156.379 20.6075 156.556 21.2618 156.964 21.5101C157.423 21.7899 158.039 21.663 158.532 21.8385C158.352 22.2487 158.498 22.4708 158.97 22.5054C159.337 22.5389 159.692 22.6215 160.036 22.753C160.293 22.5595 160.572 22.4063 160.874 22.2952C161.077 22.6525 161.364 22.7408 161.734 22.5609C162.835 22.7671 163.364 23.1834 164.064 23.806C164.692 24.3647 164.181 24.4101 164.869 24.3604C165.145 24.3405 165.63 23.8716 166.262 23.9631C166.626 24.0338 166.977 24.1462 167.315 24.2994C167.68 24.612 168.068 24.6513 168.479 24.4177C169.145 24.7432 169.211 25.3207 170.023 25.3996C170.922 25.4872 170.633 24.3665 171.25 25.9468C172.081 24.2713 172.386 26.9406 173.244 27.1562C174.133 27.3796 174.229 26.6587 174.99 27.4463C175.218 27.6824 175.206 28.0725 175.461 28.3226C175.881 28.7321 176.448 28.6503 176.813 29.209C176.61 28.8972 176.861 30.3142 176.857 30.2674C176.913 30.8924 176.358 31.5928 177.496 31.5394C177.484 31.605 176.937 32.402 176.83 32.3119C176.804 32.2211 176.782 32.1288 176.765 32.0354C176.642 32.0881 176.588 32.8472 176.611 32.9813C176.707 32.9965 176.747 32.9247 176.729 32.7661C176.542 33.3515 176.824 33.7235 176.465 34.2794C176.235 34.6344 175.605 34.9015 175.271 35.1207C174.464 35.6499 173.674 36.1808 172.886 36.7442C171.05 38.0578 168.995 39.642 166.683 39.916C167.844 38.7758 174.525 34.461 171.174 33.2225C170.552 32.9929 169.421 32.7755 168.771 32.7272C167.962 32.6674 167.126 33.1302 166.235 32.8411C165.159 32.4932 165.564 31.4818 164.907 31.1188C163.511 30.3492 163.841 32.1595 163.402 32.6335C162.94 32.1494 163.039 31.9136 162.31 31.87C161.57 31.8253 161.395 32.5091 160.531 32.083C159.342 31.4962 159.971 30.3268 158.284 30.2994C158.313 30.0428 158.557 29.3255 158.235 29.1254C157.801 29.6881 158.137 30.3175 157.734 30.8592C157.533 31.131 157.095 31.3477 156.776 31.4356C156.028 31.6411 155.922 32.0344 156.043 30.9083C155.489 31.9068 153.789 31.4962 152.778 31.3956C151.135 31.2323 149.388 30.9212 147.812 30.3942C146.354 29.9065 145.576 29.0688 144.374 28.3064C143.92 28.018 143.703 28.1283 143.051 27.9492C142.408 27.7726 141.782 27.4301 142.084 26.6418ZM145.552 8.96128C145.801 8.81176 145.979 11.0425 145.678 11.4594C145.127 10.5884 144.151 9.31086 145.552 8.96128ZM146.345 8.07143C147.143 7.34923 146.589 9.21458 146.442 9.52754C146.147 9.33804 145.851 9.14851 145.556 8.95901C145.933 8.72759 146.027 8.35948 146.345 8.07143ZM176.451 5.0652C183.824 6.61233 191.129 9.50414 197.042 14.2632C202.428 18.5979 206.229 24.7482 208.36 31.2904C210.573 38.0809 209.829 45.6146 204.566 50.8119C201.793 53.5493 198.132 55.2009 194.643 56.8126C192.971 57.5847 191.249 58.2278 189.571 58.9822C188.365 59.524 186.893 60.3906 185.518 60.2406C186.22 59.502 187.238 59.4869 188.087 59.0356C189.113 58.4895 189.952 57.442 190.836 56.6936C191.714 55.9507 193.662 53.6113 195.012 54.1776C194.824 52.9311 196.245 52.3525 196.884 51.5306C197.561 50.6612 197.61 49.6443 198.857 49.3599C197.517 48.3117 197.928 46.3352 198.219 44.9085C198.592 43.0838 198.764 41.4087 198.911 39.5519C199.176 36.2046 199.389 31.9403 197.54 28.9978C196.94 28.0422 196.175 27.1641 195.64 26.1714C194.995 24.9753 195.137 23.9228 195.137 22.6114C193.957 23.4044 193.708 21.7877 193.21 20.9997C192.836 20.4086 192.344 20.0784 192.224 19.3344C192.136 18.7933 192.724 18.7017 192.401 18.1344C192.007 18.4325 191.849 18.8946 191.649 19.3235C191.285 19.1779 191.714 18.6704 191.506 18.5056C191.499 18.501 190.796 18.1956 190.831 18.2396C190.379 17.6661 190.233 16.7145 190.011 16.0319C189.183 16.4517 189.338 16.4023 188.413 15.7008C188.25 15.5774 187.437 15.0104 187.36 14.825C187.002 13.9582 187.629 14.4716 187.454 13.9336C186.95 12.3884 184.125 12.6807 183.901 10.3653C182.523 11.24 181.998 10.0006 181.184 9.11906C180.349 8.21605 178.949 7.8687 179.024 6.43638C178.59 6.58475 178.156 6.73272 177.723 6.88033C177.948 5.55864 175.985 5.64281 175.274 4.97234C175.668 4.97724 176.061 5.00821 176.451 5.0652ZM177.574 86.9272C178.257 86.3162 178.05 87.1294 178.49 87.0364C178.866 86.9567 178.94 86.6727 179.3 86.5854C180.786 86.2264 183.007 86.6774 184.569 86.5999C186.378 86.5105 189.479 86.8861 190.342 89.0031C190.861 90.2777 190.068 89.8441 189.195 89.7493C188.518 89.6761 187.916 89.8131 187.246 89.8062C186.915 89.8574 186.585 89.8523 186.256 89.7907C186.095 89.6851 186.001 89.5362 185.971 89.3445C185.039 89.2035 184.049 89.755 183.017 89.7824C181.638 89.8192 180.414 89.555 179.367 88.6246C178.951 89.245 178.667 89.5528 177.919 89.622C177.899 89.6238 177.168 89.3297 177.055 89.3001C176.905 89.2612 176.526 89.5755 176.238 89.4857C176.75 88.6697 176.824 87.5973 177.574 86.9272ZM271.68 94.294C271.923 93.448 272.126 92.5908 272.348 91.7394C275.749 95.6112 278.725 100.794 280.065 105.76C280.935 108.986 282.289 114.833 278.141 116.497C274.763 117.853 272.879 112.994 272.024 110.6C270.137 105.316 270.137 99.6701 271.68 94.294ZM119.513 33.6251C119.557 33.6161 117.311 34.9221 118.051 33.8648C118.348 33.4395 119.475 33.1406 119.975 33.1406L119.513 33.6251ZM117.353 34.1784C117.093 34.3969 116.831 34.6128 116.566 34.8258C116.312 34.4243 116.057 34.0223 115.803 33.6208C116.304 33.4096 118.432 33.2509 117.353 34.1784ZM115.77 74.7805C115.3 74.4622 114.928 74.6312 114.787 75.1654C114.787 74.6341 115.064 73.3992 115.489 73.2553C115.764 73.162 114.575 71.7558 114.909 71.3877C115.759 71.8744 115.25 72.3405 115.499 72.9688C115.612 73.2521 115.949 73.5203 116.023 73.738C116.148 74.1078 116.655 75.3788 115.77 74.7805ZM113.469 71.6159C112.987 71.7392 113.83 72.5333 113.829 72.8844C113.828 73.1501 113.51 73.3537 113.378 73.7171C113.093 74.504 113.584 75.0357 112.776 75.6362C112.776 73.9117 111.619 69.3421 113.843 68.5018C112.758 67.6475 113.649 66.6613 114.499 67.6839C115.317 68.6669 114.796 71.2764 113.469 71.6159ZM112.31 64.8106C111.873 63.2606 110.557 62.7185 109.053 62.8104C109.111 62.0167 109.712 60.8725 110.146 62.3029C110.325 61.88 110.449 61.3285 110.856 61.0484C111.542 63.1986 114.961 64.3867 112.832 66.7168C112.658 66.0817 112.489 65.4451 112.31 64.8106ZM108.336 62.9258C100.418 63.5 89.301 65.143 82.9643 59.0734C78.8326 55.1159 79.0532 48.9529 82.3923 44.5559C84.2977 42.0467 86.8988 40.2801 89.5111 38.597C90.519 37.9471 91.3729 37.5185 92.4796 37.1451C92.6587 37.1256 92.8274 37.1656 92.985 37.2651C93.0473 36.9977 93.1976 36.8001 93.4373 36.6707C93.8649 36.4422 94.4737 36.3603 94.7199 35.8856C94.4571 36.7774 94.3219 37.6955 94.2257 38.618C94.0123 38.3696 93.7993 38.1212 93.5862 37.8729C93.4081 39.5534 91.6574 38.5361 90.612 38.7459C91.3005 39.699 91.7929 40.0451 91.8524 41.3045C91.3394 40.3576 90.267 39.735 89.27 39.4301C89.8114 41.0316 90.1942 41.9822 89.6492 43.7384C88.9906 43.3624 88.9463 42.4595 88.1475 42.2432C87.9366 43.2903 87.8995 44.4525 87.6295 45.4686C85.5842 44.5358 85.7835 47.0482 86.605 48.2915C87.0416 48.9529 87.2561 49.7186 87.6457 50.3534C88.6017 51.9109 87.8753 49.582 88.938 49.6923C88.6994 51.3349 88.6161 51.4986 89.8183 52.7014C90.9916 53.8744 91.6 55.5019 92.8548 56.6039C93.2182 56.1396 92.6468 55.6537 92.5967 55.2092C93.7643 55.4049 94.3111 56.5757 95.4336 55.5387C95.9231 56.4928 96.453 57.5436 97.6253 57.7393C96.8503 56.2661 99.1136 57.2653 99.694 57.4744C100.134 57.633 100.923 57.7592 101.093 57.8201C102.049 58.1654 101.393 57.5458 101.974 58.678C102.826 58.4206 103.147 57.7137 104.167 58.311C104.995 58.797 104.997 59.6289 105.187 60.4814C105.384 59.9238 105.584 59.3665 105.802 58.8164C106.025 58.9101 106.958 59.9371 106.856 59.9418C109.04 59.8347 108.963 61.1908 108.336 62.9258ZM97.2183 35.1268C97.657 34.819 98.1923 35.2288 98.6847 35.1185C99.3667 34.9664 99.7538 34.3825 100.515 34.3197C100.304 34.9971 99.9059 34.9336 99.5693 35.4653C99.4546 35.6466 99.5145 36.0813 99.4125 36.1859C98.5589 37.06 98.264 36.3466 97.3928 35.6848C97.4685 36.4829 97.622 36.7349 96.8701 36.949C96.1895 37.1433 95.0659 36.4285 94.7228 35.8802C95.0122 35.3013 96.6935 35.4952 97.2183 35.1268ZM102.652 33.8792C103.391 33.9499 102.5 36.1314 101.441 34.0155C101.84 33.9286 102.244 33.8832 102.652 33.8792ZM106.453 33.4579C107.62 33.2199 111.509 32.1115 111.942 33.9265C112.019 33.8814 112.309 32.8566 112.443 32.9817C112.982 33.4827 113.042 34.1467 113.001 34.8424C112.35 33.4863 112.581 34.6777 112.14 34.5847C112.025 34.5602 111.849 34.7754 111.557 34.6867C111.175 34.5699 110.901 33.7563 110.659 33.4809C110.258 34.0544 109.759 34.7934 108.954 34.7436C108.385 34.7083 107.466 33.2416 108.204 34.8475C107.771 34.7044 107.27 34.3803 106.787 34.4452C106.247 34.5184 105.966 35.0515 105.459 35.1376C104.336 35.328 104.167 34.2476 103.438 33.6608C104.444 33.6024 105.461 33.6601 106.453 33.4579ZM113.508 33.4402C113.59 33.0682 114.611 32.9179 114.871 33.0361C115.505 33.3241 115.27 33.7044 115.154 34.337C114.683 34.1143 114.213 33.8919 113.742 33.6691C114.444 34.8002 113.172 34.9643 113.508 33.4402ZM311.023 99.6928C310.939 96.9824 310.86 94.2248 310.173 91.5858C309.693 89.7392 308.511 86.4275 306.276 86.1071C302.907 85.6233 301.041 92.2837 300.096 94.5698C299.907 91.8782 300.073 89.0132 299.056 86.4585C298.242 84.4111 296.185 82.4721 294.414 84.7712C292.838 86.8176 292.535 89.8379 292.12 92.2999C291.583 95.4901 291.26 98.7047 290.867 101.914C289.328 98.9394 289.059 95.5344 287.843 92.443C286.695 89.5258 284.888 86.7397 283.148 84.1451C281.727 82.0255 279.998 80.0328 277.772 78.7373C275.835 77.6098 272.446 76.39 270.599 78.2626C269.058 79.8252 269.3 81.9163 269.38 83.8884C269.416 84.7665 269.553 85.3685 268.781 85.8111C268.402 86.0285 267.808 85.916 267.391 86.0321C266.719 86.2199 266.204 86.5378 265.636 86.9603C261.65 89.9223 259.814 95.2601 259.245 100.019C258.525 106.049 260.876 111.218 262.899 116.735C263.221 117.615 264.245 119.48 264.103 120.461C263.948 121.537 262.599 121.565 261.688 121.587C258.937 121.655 256.061 121.45 253.324 121.194C246.806 120.584 240.294 117.447 234.459 114.645C233.394 114.134 231.888 113.841 231.019 113.037C230.202 112.28 229.987 111.067 229.282 110.199C227.551 108.07 226.448 106.253 223.9 104.966C221.305 103.656 218.656 102.445 216.124 101.01C212.993 99.235 210.1 96.9864 207.1 94.9987C201.523 91.3058 195.985 87.2573 190.073 84.117C187.326 82.6574 184.255 82.4213 181.403 81.2263C178.626 80.0628 175.216 80.0613 172.318 80.796C170.906 81.1543 169.945 82.0028 168.646 82.5568C167.125 83.206 165.883 82.4894 164.544 81.7144C162.498 80.5306 160.47 78.6014 163.384 77.3243C164.372 76.8906 165.611 76.7266 166.474 76.0453C167.394 75.3194 168.133 73.9799 168.881 73.0704C170.545 71.0485 171.539 68.7214 173.974 67.4641C176.667 66.0737 179.858 65.6952 182.73 64.7865C185.84 63.8024 188.886 62.632 191.939 61.4828C197.44 59.4126 203.158 57.1774 207.11 52.6196C210.519 48.688 212.005 43.6126 211.867 38.4579C211.586 27.9203 205.941 17.2256 197.842 10.6371C187.911 2.55807 175.277 -0.13596 162.732 0.00523497C156.844 0.0717053 149.818 0.842206 144.906 4.41927C140.663 7.50892 139.957 12.9128 140.588 17.7908C140.844 19.7705 141.72 22.3832 140.323 24.1275C139.542 25.1036 138.139 25.3452 137.087 25.9536C135.764 26.7182 134.598 27.451 133.1 27.8551C126.736 29.5738 120.033 28.9754 113.527 28.8803C102.688 28.7217 91.5788 31.6562 83.4935 39.2935C76.964 45.4604 75.0059 57.0894 82.9694 63.1013C89.4034 67.9582 99.495 67.424 107.081 66.5769C109.434 66.3138 111.052 65.9317 111.057 68.81C111.063 71.954 110.542 75.2401 111.344 78.3264C112.608 83.1877 117.279 83.3034 121.408 82.2566C123.587 81.7043 125.694 80.8738 127.763 80.004C130.798 78.7283 133.58 76.8524 136.577 75.5789C138.609 74.7159 140.131 77.507 141.933 75.572C142.266 75.2145 142.328 74.6817 142.83 74.4986C143.617 74.212 144.938 75.217 145.628 75.5349C146.662 76.0107 147.704 76.3608 148.117 77.507C148.504 78.5791 148.334 80.2841 147.964 81.3417C147.16 83.6411 144.994 83.1866 143.017 83.0327C139.569 82.7645 136.143 82.1953 132.696 81.9563C129.603 81.7422 126.707 82.6661 124.04 84.1916C118.437 87.3947 113.852 92.4899 108.994 96.68C106.494 98.8363 104.077 101.166 101.358 103.043C100.176 103.86 98.8952 104.611 97.8679 105.625C96.8481 106.632 96.736 107.547 96.3874 108.887C95.7663 111.271 92.6822 112.437 90.7544 113.696C88.0282 115.475 85.1379 116.73 82.0815 117.822C75.6093 120.134 69.0859 121.748 62.3192 122.941C59.0062 123.526 55.7209 123.91 52.3757 124.225C49.492 124.497 46.4258 125.385 43.5457 124.676C44.3751 123.33 45.8451 122.522 46.99 121.482C48.4657 120.142 49.7209 118.553 50.838 116.907C53.012 113.702 54.5371 110.262 54.8871 106.375C55.2029 102.876 54.841 98.6903 52.7297 95.7345C52.0005 94.7133 50.5575 94.4357 49.9051 93.5158C49.2559 92.6016 49.5035 91.0275 49.1481 89.9616C48.2437 87.2501 45.5593 83.8902 43.1968 82.3153C40.6338 80.6063 36.8846 79.9788 33.9241 80.8691C28.4392 82.519 25.0699 88.3806 22.56 93.1178C21.1891 90.233 23.4849 85.9528 20.8067 83.5903C18.5476 81.5973 16.7546 85.4579 15.9991 87.1096C12.4524 94.8629 11.6468 103.086 10.161 111.382C9.55537 110.785 9.86573 109.253 9.92268 108.541C10.0287 107.215 10.0186 105.915 10.0215 104.584C10.0287 101.222 10.6537 97.8436 10.3671 94.484C10.2017 92.5418 9.5824 88.4469 6.76084 89.0921C4.36794 89.6393 2.86908 93.0043 2.11722 95.0615C1.03275 98.0288 0.782367 100.966 0.849883 104.101C0.924536 107.564 0.264663 110.971 0.104795 114.43C-0.205928 121.148 0.101012 127.807 2.02861 134.291C5.18505 144.908 12.4427 153.73 22.1289 159.057C27.4656 161.992 33.3859 163.849 39.4728 164.249C42.7714 164.465 45.9558 164.072 49.2263 163.731C52.4536 163.395 55.6978 163.239 58.9197 162.844C66.0944 161.964 73.0857 159.693 79.6073 156.636C83.04 155.027 86.2684 153.052 89.6449 151.336C90.9999 150.649 91.9151 149.787 93.0715 148.83C94.2178 147.882 94.535 147.808 95.8388 147.808C95.4563 146.785 96.5723 146.469 97.0691 145.822C97.0413 146.136 97.0132 146.45 96.9854 146.763C97.3639 145.942 97.7165 145.95 98.0427 146.787C98.3649 145.85 98.6036 144.886 98.9929 143.972C100.481 144.726 100.356 146.516 102.346 145.209C103.985 144.133 105.492 142.863 107.163 141.809C110.969 139.407 114.251 136.281 118.068 133.906C118.068 136.219 118.231 138.552 117.922 140.853C117.628 143.042 116.811 145.087 116.161 147.182C114.963 151.047 114.88 155.177 113.552 159.003C113.003 160.588 111.572 161.913 111.162 163.456C110.743 165.029 111.709 166.29 110.09 167.323C108.948 168.052 107.521 168.359 106.257 168.8C104.328 169.473 102.497 170.421 100.62 171.225C91.8134 174.999 83.2239 178.842 75.065 183.915C67.3222 188.73 59.4611 193.702 52.3483 199.42C46.1753 204.383 39.9352 210.799 38.4325 218.894C36.9744 226.747 40.8595 235.175 48.6604 237.761C52.7164 239.106 57.3019 238.939 61.5258 238.997C66.071 239.06 70.8876 237.965 75.3563 237.172C80.0755 236.335 84.714 235.025 89.447 234.277C93.9881 233.56 98.153 231.957 102.62 230.969C107.377 229.917 112.257 229.346 117.041 228.4C119.195 227.974 121.304 227.345 123.464 226.951C125.828 226.519 128.219 226.357 130.56 225.785C135.101 224.675 139.449 222.886 144.01 221.853C146.06 221.389 148.08 220.767 150.131 220.333C152.02 219.934 153.491 218.872 155.384 219.744C156.913 220.448 158.133 221.656 159.58 222.497C161.457 223.588 163.436 224.566 165.393 225.505C169.325 227.392 173.403 228.696 177.514 230.112C181.833 231.601 186.074 233.297 190.548 234.28C195.134 235.287 199.814 235.568 204.432 236.365C213.89 237.996 223.269 238.729 232.869 238.788C237.722 238.819 242.575 238.243 247.416 238.311C251.702 238.372 255.428 239.338 259.348 237.059C265.61 233.418 272.874 227.934 272.72 219.968C272.58 212.753 268.252 205.86 264.193 200.17C259.263 193.259 252.235 188.393 245.346 183.626C238.004 178.546 229.757 175.036 222.041 170.601C218.095 168.333 214.455 165.893 210.17 164.282C208.125 163.513 206.129 162.621 204.108 161.793C202.481 161.127 200.132 160.758 198.74 159.653C197.871 158.963 197.788 157.918 197.559 156.893C197.05 154.623 196.252 152.47 195.478 150.281C193.984 146.054 192.991 141.75 192.349 137.317C191.737 133.091 190.379 128.696 191.082 124.401C195.71 128.878 200.466 133.181 205.202 137.539C206.976 139.173 208.718 140.84 210.501 142.463C211.841 143.682 213.515 145.492 215.382 145.854C217.766 146.316 216.895 143.679 218.532 143.27C219.533 143.021 222.55 145.563 223.341 146.065C228.355 149.248 233.906 151.265 239.421 153.431C245.203 155.703 251.15 157.721 257.372 158.293C263.119 158.822 268.996 158.143 274.543 156.577C285.588 153.459 293.716 146.06 299.681 136.47C306.477 125.541 311.423 112.739 311.023 99.6928Z" fill="black"/>
<path fill-rule="evenodd" clip-rule="evenodd" d="M142.212 75.8684C142.211 75.8717 142.194 75.908 142.194 75.908C142.215 75.8935 142.221 75.8804 142.212 75.8684Z" fill="black"/>
<path fill-rule="evenodd" clip-rule="evenodd" d="M142.745 76.0096C142.704 75.6614 142.615 75.3208 142.478 74.987C142.112 75.5666 141.785 75.815 142.265 76.4289C142.425 76.289 142.585 76.1495 142.745 76.0096Z" fill="black"/>
<path fill-rule="evenodd" clip-rule="evenodd" d="M168.215 158.86C168.624 158.425 167.909 158.261 167.637 158.255C167.664 158.722 167.433 159.841 168.072 160.057C167.918 159.635 167.966 159.236 168.215 158.86Z" fill="black"/>
<path fill-rule="evenodd" clip-rule="evenodd" d="M157.426 67.7932C156.723 69.1507 158.276 69.5717 159.175 68.916C159.851 68.4229 160.251 67.1659 160.362 66.3596C160.722 63.7505 158.896 61.2669 157.985 58.9516C157.75 58.3532 157.428 56.3007 156.67 56.2445C155.8 56.1796 155.736 58.0699 155.724 58.5576C155.691 60.0283 156.08 61.5264 156.536 62.9146C157.028 64.4113 158.247 66.2078 157.426 67.7932Z" fill="black"/>
<path fill-rule="evenodd" clip-rule="evenodd" d="M160.769 62.349C163.471 64.7548 165.632 60.7478 165.443 58.3777C165.397 57.7905 165 55.6252 163.886 56.4132C163.327 56.809 163.804 58.0955 163.537 58.6603C162.245 61.3985 161 57.1511 160.13 56.8176C159.071 56.4114 158.965 57.8024 158.966 58.5461C158.969 60.0222 159.672 61.3714 160.769 62.349Z" fill="black"/>
<path fill-rule="evenodd" clip-rule="evenodd" d="M150.962 62.7228C151.598 61.7207 152.38 60.3765 152.467 59.1758C152.601 57.3097 151.514 57.4654 150.618 58.7674C149.986 59.6873 149.512 61.2474 148.116 60.8596C146.393 60.3816 146.92 58.0645 145.955 56.9636C143.52 60.2352 148.129 67.1818 150.962 62.7228Z" fill="black"/>
<path fill-rule="evenodd" clip-rule="evenodd" d="M154.612 72.7348C155.62 72.9525 158.246 72.8725 157.336 71.3297C156.188 69.3868 152.372 72.2503 154.612 72.7348Z" fill="black"/>
<path fill-rule="evenodd" clip-rule="evenodd" d="M189.906 14.7888C190.09 14.2397 189.837 14.1399 189.397 13.7074C188.981 14.0918 189.514 14.4961 189.906 14.7888Z" fill="black"/>
<path fill-rule="evenodd" clip-rule="evenodd" d="M208.697 114.26C209.362 114.365 209.576 114.014 209.338 113.205C208.29 113.137 208.076 113.489 208.697 114.26Z" fill="black"/>
<path fill-rule="evenodd" clip-rule="evenodd" d="M172.403 29.4058C173.136 29.7411 172.856 30.4288 172.843 31.0099C173.221 30.5997 173.984 29.8492 173.673 29.2598C173.194 28.3511 171.944 29.196 172.403 29.4058Z" fill="black"/>
<path fill-rule="evenodd" clip-rule="evenodd" d="M147.432 17.9664C147.32 17.7483 147.208 17.5302 147.096 17.3121C146.641 17.6776 145.938 18.6437 146.662 19.1145C146.958 18.7544 147.215 18.3719 147.432 17.9664Z" fill="black"/>
<path fill-rule="evenodd" clip-rule="evenodd" d="M156.228 24.3788C157.14 25.0939 156.702 22.8983 156.675 22.7192C156.539 22.9766 155.767 24.0172 156.228 24.3788Z" fill="black"/>
<path fill-rule="evenodd" clip-rule="evenodd" d="M155.722 23.2638C155.653 23.0825 155.582 22.9009 155.513 22.7192C155.143 23.0616 154.69 23.7606 155.301 24.161C155.468 23.8806 155.609 23.5814 155.722 23.2638Z" fill="black"/>
<path fill-rule="evenodd" clip-rule="evenodd" d="M161.515 30.8034C161.59 30.8718 161.664 30.9407 161.738 31.0099C162.039 30.4029 161.697 29.9472 161.129 29.9285C161.17 30.2691 161.298 30.5608 161.515 30.8034Z" fill="black"/>
<path fill-rule="evenodd" clip-rule="evenodd" d="M137.073 99.0785C137.435 98.8323 137.764 98.5512 138.059 98.2358C136.988 97.5812 137.63 99 136.341 98.1287C136.063 98.5126 136.517 99.372 137.073 99.0785Z" fill="black"/>
<path fill-rule="evenodd" clip-rule="evenodd" d="M182.073 158.616C182.481 157.991 182.554 158.009 181.998 157.534C181.534 158.307 181.582 158.108 182.073 158.616Z" fill="black"/>
<path fill-rule="evenodd" clip-rule="evenodd" d="M96.9659 59.1542C97.1876 59.3852 97.4093 59.6167 97.631 59.8474C97.7345 59.5449 98.299 58.6899 97.9154 58.4055C97.5993 58.6549 97.2824 58.9044 96.9659 59.1542Z" fill="black"/>
<path fill-rule="evenodd" clip-rule="evenodd" d="M104.851 61.4413C104.497 61.3822 103.65 61.1241 103.454 61.4532C103.972 61.8775 105.141 61.49 104.851 61.4413Z" fill="black"/>
</svg>
