<svg width="40" height="40" viewBox="0 0 40 40" fill="none" xmlns="http://www.w3.org/2000/svg">
<path d="M20 39.5C14.6072 39.5 9.9575 37.5717 6.18533 33.767C2.41317 29.9732 0.5 25.3408 0.5 20C0.5 14.6093 2.41533 9.95967 6.19183 6.1875C9.96183 2.41533 14.6093 0.5 20 0.5C25.343 0.5 29.9753 2.41317 33.767 6.18533C37.5695 9.95967 39.5 14.6093 39.5 20C39.5 25.3408 37.5717 29.9753 33.7713 33.7735C29.9775 37.5717 25.3452 39.5 20 39.5ZM20 4.83333C15.7403 4.83333 12.226 6.2785 9.25767 9.25333C6.28067 12.226 4.83333 15.7403 4.83333 20C4.83333 24.212 6.28067 27.7177 9.25983 30.7142C12.2325 33.7107 15.7447 35.1667 20 35.1667C24.2098 35.1667 27.7133 33.7085 30.7055 30.7098C33.7085 27.7112 35.1667 24.2055 35.1667 20C35.1667 15.7468 33.7107 12.2325 30.7142 9.25983C27.7177 6.28067 24.2142 4.83333 20 4.83333ZM13.5 25.4167C10.5122 25.4167 8.08333 22.9878 8.08333 20C8.08333 17.0122 10.5122 14.5833 13.5 14.5833C16.4878 14.5833 18.9167 17.0122 18.9167 20C18.9167 22.9878 16.4878 25.4167 13.5 25.4167ZM13.5 16.75C11.7082 16.75 10.25 18.2082 10.25 20C10.25 21.7918 11.7082 23.25 13.5 23.25C15.2918 23.25 16.75 21.7918 16.75 20C16.75 18.2082 15.2918 16.75 13.5 16.75ZM26.5 25.4167C23.5122 25.4167 21.0833 22.9878 21.0833 20C21.0833 17.0122 23.5122 14.5833 26.5 14.5833C29.4878 14.5833 31.9167 17.0122 31.9167 20C31.9167 22.9878 29.4878 25.4167 26.5 25.4167Z" fill="black"/>
</svg>
