<svg width="414" height="46" viewBox="0 0 414 46" fill="none" xmlns="http://www.w3.org/2000/svg">
<rect opacity="0.35" x="375.5" y="17.8333" width="21" height="10.3333" rx="2.16667" stroke="black"/>
<path opacity="0.4" d="M398 21V25C398.808 24.6612 399.333 23.8731 399.333 23C399.333 22.1269 398.808 21.3388 398 21Z" fill="black"/>
<rect x="377" y="19.3333" width="18" height="7.33333" rx="1.33333" fill="black"/>
<path fill-rule="evenodd" clip-rule="evenodd" d="M362.334 19.5739C364.558 19.574 366.698 20.4117 368.311 21.9138C368.432 22.0298 368.626 22.0284 368.746 21.9106L369.906 20.7627C369.967 20.703 370.001 20.6221 370 20.5379C369.999 20.4537 369.965 20.3731 369.904 20.3141C365.672 16.3398 358.995 16.3398 354.763 20.3141C354.702 20.3731 354.667 20.4536 354.667 20.5378C354.666 20.622 354.7 20.7029 354.76 20.7627L355.921 21.9106C356.041 22.0285 356.235 22.03 356.356 21.9138C357.969 20.4116 360.109 19.5739 362.334 19.5739ZM362.332 23.2995C363.556 23.2994 364.736 23.756 365.643 24.5805C365.766 24.6976 365.959 24.695 366.079 24.5748L367.239 23.3977C367.3 23.3359 367.334 23.2522 367.333 23.1651C367.332 23.0781 367.297 22.995 367.234 22.9345C364.472 20.3552 360.194 20.3552 357.432 22.9345C357.37 22.995 357.334 23.0781 357.333 23.1652C357.333 23.2523 357.367 23.336 357.428 23.3977L358.588 24.5748C358.708 24.695 358.901 24.6976 359.024 24.5805C359.93 23.7565 361.109 23.3 362.332 23.2995ZM364.667 26.0231C364.668 26.1085 364.634 26.1909 364.572 26.2508L362.557 28.2419C362.498 28.3004 362.417 28.3333 362.333 28.3333C362.249 28.3333 362.169 28.3004 362.11 28.2419L360.095 26.2508C360.032 26.1908 359.998 26.1084 360 26.023C360.002 25.9375 360.04 25.8566 360.104 25.7993C361.391 24.7336 363.276 24.7336 364.562 25.7993C364.627 25.8567 364.665 25.9376 364.667 26.0231Z" fill="black"/>
<path fill-rule="evenodd" clip-rule="evenodd" d="M349.667 18.6667C349.667 18.1144 349.219 17.6667 348.667 17.6667H347.667C347.114 17.6667 346.667 18.1144 346.667 18.6667V27.3333C346.667 27.8856 347.114 28.3333 347.667 28.3333H348.667C349.219 28.3333 349.667 27.8856 349.667 27.3333V18.6667ZM343 20H344C344.552 20 345 20.4477 345 21V27.3333C345 27.8856 344.552 28.3333 344 28.3333H343C342.448 28.3333 342 27.8856 342 27.3333V21C342 20.4477 342.448 20 343 20ZM339.333 22.3333H338.333C337.781 22.3333 337.333 22.781 337.333 23.3333V27.3333C337.333 27.8856 337.781 28.3333 338.333 28.3333H339.333C339.886 28.3333 340.333 27.8856 340.333 27.3333V23.3333C340.333 22.781 339.886 22.3333 339.333 22.3333ZM335.667 25.3333C335.667 24.781 335.219 24.3333 334.667 24.3333H333.667C333.114 24.3333 332.667 24.781 332.667 25.3333V27.3333C332.667 27.8856 333.114 28.3333 333.667 28.3333H334.667C335.219 28.3333 335.667 27.8856 335.667 27.3333V25.3333Z" fill="black"/>
<path d="M36.9974 28.2563C39.6854 28.2563 41.2821 26.1543 41.2821 22.5947C41.2821 21.2544 41.0257 20.1265 40.535 19.2549C39.8245 17.8999 38.6014 17.1675 37.056 17.1675C34.7562 17.1675 33.1302 18.7129 33.1302 20.8809C33.1302 22.917 34.595 24.3965 36.6092 24.3965C37.847 24.3965 38.8504 23.8179 39.3485 22.8145H39.3704C39.3704 22.8145 39.3997 22.8145 39.4071 22.8145C39.4217 22.8145 39.473 22.8145 39.473 22.8145C39.473 25.2314 38.5574 26.6743 37.012 26.6743C36.1038 26.6743 35.4007 26.1763 35.159 25.3779H33.2767C33.5916 27.1138 35.0638 28.2563 36.9974 28.2563ZM37.0633 22.895C35.8475 22.895 34.9832 22.0308 34.9832 20.8223C34.9832 19.6431 35.8914 18.7422 37.0706 18.7422C38.2498 18.7422 39.158 19.6577 39.158 20.8516C39.158 22.0308 38.2718 22.895 37.0633 22.895ZM44.2666 26.8794C44.9624 26.8794 45.4385 26.3813 45.4385 25.7222C45.4385 25.0557 44.9624 24.5649 44.2666 24.5649C43.5781 24.5649 43.0947 25.0557 43.0947 25.7222C43.0947 26.3813 43.5781 26.8794 44.2666 26.8794ZM44.2666 21.3862C44.9624 21.3862 45.4385 20.8955 45.4385 20.2363C45.4385 19.5698 44.9624 19.0791 44.2666 19.0791C43.5781 19.0791 43.0947 19.5698 43.0947 20.2363C43.0947 20.8955 43.5781 21.3862 44.2666 21.3862ZM47.4635 20.522V20.5513H49.236V20.522C49.236 19.4453 49.9831 18.7202 51.089 18.7202C52.1291 18.7202 52.8908 19.394 52.8908 20.3242C52.8908 21.0713 52.5319 21.6206 51.089 23.0854L47.5661 26.689V28H54.9049V26.396H50.1588V26.2715L52.3708 24.0522C54.1652 22.2798 54.7438 21.3423 54.7438 20.207C54.7438 18.4419 53.235 17.1675 51.1476 17.1675C48.9796 17.1675 47.4635 18.5444 47.4635 20.522ZM57.1424 28H59.1199L63.639 19.0425V17.4312H56.2855V19.0205H61.7347V19.1377L57.1424 28Z" fill="black"/>
</svg>
